<svg width="19" height="19" viewBox="0 0 19 19" fill="none" xmlns="http://www.w3.org/2000/svg">
<path d="M8.55908 14.3367C8.55908 14.6913 8.84651 14.9787 9.20104 14.9787C9.55557 14.9787 9.843 14.6913 9.843 14.3367V11.7689C9.843 11.4144 9.55557 11.127 9.20104 11.127C8.84651 11.127 8.55908 11.4144 8.55908 11.7689V14.3367Z" fill="#4598AC"/>
<path fill-rule="evenodd" clip-rule="evenodd" d="M9.20139 0C8.58075 0 8.01454 0.170427 7.39474 0.459727C6.79475 0.739774 6.10093 1.15309 5.23138 1.67108L3.98546 2.41327C3.02757 2.98387 2.26427 3.43855 1.68634 3.87335C1.08974 4.3222 0.641951 4.78438 0.350143 5.39306C0.0581977 6.00204 -0.0209342 6.63938 0.00444453 7.38323C0.0290187 8.10321 0.154971 8.97859 0.312901 10.0761L0.563144 11.8152C0.766337 13.2274 0.927571 14.348 1.16847 15.2206C1.41678 16.1199 1.76912 16.8337 2.4049 17.3812C3.04018 17.9282 3.80025 18.1729 4.73024 18.2895C5.63343 18.4028 6.77292 18.4028 8.21047 18.4028H10.1923C11.6299 18.4028 12.7694 18.4028 13.6726 18.2895C14.6026 18.1729 15.3626 17.9282 15.9979 17.3812C16.6336 16.8337 16.986 16.1199 17.2343 15.2206C17.4752 14.3481 17.6365 13.2274 17.8397 11.8152L18.0898 10.0761C18.2479 8.9785 18.3738 8.10321 18.3983 7.38323C18.4237 6.63938 18.3446 6.00204 18.0526 5.39306C17.7608 4.78438 17.3131 4.3222 16.7165 3.87335C16.1386 3.43855 15.3752 2.98387 14.4173 2.41327L13.1714 1.67108C12.3019 1.15309 11.608 0.739774 11.008 0.459727C10.3882 0.170427 9.82204 0 9.20139 0ZM5.85943 2.79141C6.7646 2.25221 7.40325 1.87264 7.93776 1.62315C8.45912 1.37981 8.83402 1.28391 9.20139 1.28391C9.56885 1.28391 9.94367 1.37981 10.465 1.62315C10.9996 1.87264 11.6382 2.25221 12.5433 2.79141L13.7287 3.49751C14.7253 4.09118 15.4285 4.51111 15.9446 4.89933C16.4482 5.27828 16.7241 5.59183 16.8949 5.94809C17.0655 6.30406 17.1365 6.71348 17.1152 7.33945C17.0933 7.98124 16.9781 8.78737 16.8138 9.92988L16.5752 11.5881C16.3642 13.0545 16.2134 14.0941 15.9967 14.8789C15.785 15.6457 15.5301 16.0897 15.1601 16.4083C14.7896 16.7274 14.3093 16.9157 13.5128 17.0156C12.6988 17.1177 11.6398 17.1189 10.1482 17.1189H8.25463C6.76301 17.1189 5.70405 17.1177 4.89001 17.0156C4.09352 16.9157 3.61319 16.7274 3.24267 16.4083C2.87267 16.0897 2.6178 15.6457 2.40608 14.8789C2.18943 14.0941 2.0386 13.0545 1.82761 11.5881L1.589 9.9298C1.42461 8.78737 1.30952 7.98124 1.28761 7.33945C1.26626 6.71348 1.33723 6.30406 1.50789 5.94809C1.67869 5.59183 1.95452 5.27828 2.45822 4.89933C2.97425 4.51111 3.6775 4.09118 4.67409 3.49751L5.85943 2.79141Z" fill="#4598AC"/>
</svg>
