<svg width="24" height="24" viewBox="0 0 24 24" fill="none" xmlns="http://www.w3.org/2000/svg">
<path d="M16.6 5.82C15.9165 5.03962 15.5397 4.03743 15.54 3H12.45V15.4C12.4262 16.0685 12.1449 16.7018 11.6649 17.1671C11.1849 17.6323 10.5433 17.8933 9.87451 17.8933C8.46151 17.8933 7.29551 16.7473 7.29551 15.3133C7.29551 13.6003 8.94951 12.32 10.6485 12.845V9.68C7.19351 9.22 4.16051 11.9203 4.16051 15.3133C4.16051 18.6183 6.90351 21 9.86551 21C13.0435 21 15.54 18.503 15.54 15.4V9.19031C16.7963 10.0954 18.3055 10.5808 19.8535 10.5793V7.49C19.8535 7.49 17.9585 7.58 16.6 5.82Z" fill="black"/>
</svg>
