<svg width="20" height="20" viewBox="0 0 20 20" fill="none" xmlns="http://www.w3.org/2000/svg">
<path d="M9.99979 11.0833C9.89146 11.0833 9.78312 11.0583 9.68312 11L2.3248 6.74169C2.0248 6.56669 1.92478 6.18333 2.09978 5.88333C2.27478 5.58333 2.64978 5.48331 2.95811 5.65831L9.99979 9.73332L16.9998 5.68334C17.2998 5.50834 17.6831 5.61669 17.8581 5.90835C18.0331 6.20835 17.9248 6.59166 17.6331 6.76666L10.3248 11C10.2165 11.05 10.1081 11.0833 9.99979 11.0833Z" fill="#151515"/>
<path d="M10 18.6334C9.65833 18.6334 9.375 18.35 9.375 18.0084V10.45C9.375 10.1084 9.65833 9.82503 10 9.82503C10.3417 9.82503 10.625 10.1084 10.625 10.45V18.0084C10.625 18.35 10.3417 18.6334 10 18.6334Z" fill="#151515"/>
<path d="M10.0001 18.9583C9.26673 18.9583 8.53339 18.8 7.96673 18.475L3.51673 16.0083C2.3084 15.3417 1.3584 13.7333 1.3584 12.35V7.63331C1.3584 6.24997 2.3084 4.65001 3.51673 3.97501L7.96673 1.50833C9.10006 0.874992 10.8834 0.874992 12.0251 1.50833L16.4751 3.97501C17.6834 4.64168 18.6334 6.24997 18.6334 7.63331V12.35C18.6334 12.4083 18.6334 12.4917 18.6084 12.6C18.5584 12.8167 18.4001 12.9916 18.1917 13.0583C17.9834 13.125 17.7501 13.0833 17.5834 12.9333C16.6334 12.1 15.1501 12.0667 14.1334 12.875C13.4917 13.3833 13.1167 14.1583 13.1167 14.9833C13.1167 15.475 13.2501 15.9583 13.5084 16.375C13.5751 16.4917 13.6417 16.5833 13.7167 16.6667C13.8417 16.8083 13.8917 17 13.8584 17.1833C13.8251 17.3667 13.7084 17.5333 13.5417 17.6167L12.0167 18.4583C11.4584 18.8 10.7334 18.9583 10.0001 18.9583ZM10.0001 2.29166C9.4834 2.29166 8.95838 2.4 8.58338 2.60833L4.13339 5.07502C3.32505 5.52502 2.62506 6.71664 2.62506 7.63331V12.35C2.62506 13.2667 3.33339 14.4667 4.13339 14.9083L8.58338 17.375C9.34172 17.8 10.6667 17.8 11.4251 17.375L12.3584 16.8583C12.0501 16.3 11.8834 15.65 11.8834 14.9833C11.8834 13.7666 12.4251 12.6417 13.3667 11.8917C14.5084 10.9833 16.1251 10.7916 17.3917 11.3416V7.62501C17.3917 6.70835 16.6834 5.50834 15.8834 5.06668L11.4334 2.59999C11.0417 2.39999 10.5167 2.29166 10.0001 2.29166Z" fill="#151515"/>
<path d="M15.8333 18.9583C13.65 18.9583 11.875 17.1833 11.875 15C11.875 13.7833 12.4167 12.6583 13.3583 11.9083C14.0583 11.35 14.9417 11.0417 15.8333 11.0417C18.0167 11.0417 19.7917 12.8167 19.7917 15C19.7917 16.1333 19.3 17.2167 18.4417 17.9667C17.7167 18.6083 16.7917 18.9583 15.8333 18.9583ZM15.8333 12.2917C15.2167 12.2917 14.6333 12.5 14.1417 12.8916C13.5 13.4 13.125 14.175 13.125 15C13.125 16.4917 14.3417 17.7083 15.8333 17.7083C16.4833 17.7083 17.1167 17.4667 17.625 17.0333C18.2083 16.5167 18.5417 15.7833 18.5417 15C18.5417 13.5083 17.325 12.2917 15.8333 12.2917Z" fill="#151515"/>
<path d="M15.0001 16.4583C14.7917 16.4583 14.5834 16.35 14.4667 16.1583C14.2917 15.8583 14.3834 15.475 14.6834 15.3L15.4251 14.8583V13.9583C15.4251 13.6167 15.7084 13.3333 16.0501 13.3333C16.3917 13.3333 16.6751 13.6167 16.6751 13.9583V15.2083C16.6751 15.425 16.5584 15.6333 16.3751 15.7417L15.3334 16.3667C15.2167 16.4333 15.1084 16.4583 15.0001 16.4583Z" fill="#151515"/>
</svg>
