<svg width="20" height="22" viewBox="0 0 20 22" fill="none" xmlns="http://www.w3.org/2000/svg">
<path d="M5.75 10.9492H12.75" stroke="#777777" stroke-width="1.5" stroke-miterlimit="10" stroke-linecap="round" stroke-linejoin="round"/>
<path d="M5.75 14.9492H10.13" stroke="#777777" stroke-width="1.5" stroke-miterlimit="10" stroke-linecap="round" stroke-linejoin="round"/>
<path d="M7.75 4.75H11.75C13.75 4.75 13.75 3.75 13.75 2.75C13.75 0.75 12.75 0.75 11.75 0.75H7.75C6.75 0.75 5.75 0.75 5.75 2.75C5.75 4.75 6.75 4.75 7.75 4.75Z" stroke="#777777" stroke-width="1.5" stroke-miterlimit="10" stroke-linecap="round" stroke-linejoin="round"/>
<path d="M13.75 2.76953C17.08 2.94953 18.75 4.17953 18.75 8.74951V14.7495C18.75 18.7495 17.75 20.7495 12.75 20.7495H6.75C1.75 20.7495 0.75 18.7495 0.75 14.7495V8.74951C0.75 4.18953 2.42 2.94953 5.75 2.76953" stroke="#777777" stroke-width="1.5" stroke-miterlimit="10" stroke-linecap="round" stroke-linejoin="round"/>
</svg>
