<svg width="17" height="17" viewBox="0 0 17 17" fill="none" xmlns="http://www.w3.org/2000/svg">
<path d="M3.5625 9.93753H9.5625" stroke="white" stroke-width="1.5" stroke-linecap="round"/>
<path d="M3.5625 12.5625H7.6875" stroke="white" stroke-width="1.5" stroke-linecap="round"/>
<path d="M8.8125 0.937531V2.81253C8.8125 4.5803 8.8125 5.46418 9.36165 6.01336C9.91087 6.56253 10.7947 6.56253 12.5625 6.56253H15.5625" stroke="white" stroke-width="1.5"/>
<path d="M1.125 6.56254C1.125 6.25188 0.873158 6.00004 0.562501 6.00004C0.251843 6.00004 4.83614e-07 6.25188 4.83614e-07 6.56254H1.125ZM15 9.56254C15 9.87319 15.2519 10.125 15.5625 10.125C15.8732 10.125 16.125 9.87319 16.125 9.56254H15ZM0.078818 3.50747C0.048413 3.81664 0.274388 4.09192 0.583553 4.12234C0.892726 4.15275 1.16801 3.92677 1.19842 3.6176L0.078818 3.50747ZM16.0462 12.6176C16.0766 12.3084 15.8506 12.0331 15.5414 12.0027C15.2323 11.9724 14.957 12.1983 14.9266 12.5075L16.0462 12.6176ZM9.5625 15H6.5625V16.125H9.5625V15ZM1.125 9.56254V6.56254H4.83614e-07V9.56254H1.125ZM15 9.23471V9.56254H16.125V9.23471H15ZM10.2309 2.52088L13.2 5.19305L13.9526 4.35684L10.9835 1.68467L10.2309 2.52088ZM16.125 9.23471C16.125 7.96841 16.1363 7.16666 15.8168 6.44926L14.7892 6.90694C14.9887 7.35491 15 7.86904 15 9.23471H16.125ZM13.2 5.19305C14.2151 6.10661 14.5897 6.45903 14.7892 6.90694L15.8168 6.44926C15.4973 5.73184 14.8938 5.20393 13.9526 4.35684L13.2 5.19305ZM6.58485 1.12504C7.7712 1.12504 8.21888 1.13372 8.61788 1.28684L9.02093 0.236513C8.38208 -0.00864699 7.686 3.80201e-05 6.58485 3.80201e-05V1.12504ZM10.9835 1.68467C10.169 0.951623 9.65978 0.481643 9.02093 0.236513L8.61788 1.28684C9.01703 1.43999 9.35363 1.73131 10.2309 2.52088L10.9835 1.68467ZM6.5625 15C5.13239 15 4.11638 14.9988 3.34564 14.8952C2.59107 14.7938 2.15633 14.6035 1.83893 14.2861L1.04343 15.0816C1.60471 15.6429 2.31641 15.8919 3.19574 16.0102C4.05887 16.1262 5.16419 16.125 6.5625 16.125V15ZM4.83614e-07 9.56254C4.83614e-07 10.9608 -0.00119197 12.0662 0.114848 12.9293C0.233071 13.8086 0.48216 14.5203 1.04343 15.0816L1.83893 14.2861C1.52152 13.9687 1.33127 13.5339 1.22982 12.7794C1.12619 12.0087 1.125 10.9926 1.125 9.56254H4.83614e-07ZM9.5625 16.125C10.9608 16.125 12.0662 16.1262 12.9293 16.0102C13.8086 15.8919 14.5203 15.6429 15.0816 15.0816L14.2861 14.2861C13.9687 14.6035 13.5339 14.7938 12.7794 14.8952C12.0086 14.9988 10.9926 15 9.5625 15V16.125ZM6.58485 3.80201e-05C5.17904 3.80201e-05 4.06832 -0.001147 3.20165 0.11484C2.31924 0.232943 1.60514 0.481763 1.04343 1.04347L1.83893 1.83896C2.1559 1.522 2.59197 1.33148 3.35089 1.2299C4.12556 1.12622 5.14733 1.12504 6.58485 1.12504V3.80201e-05ZM1.19842 3.6176C1.28948 2.69182 1.48534 2.19255 1.83893 1.83896L1.04343 1.04347C0.417248 1.66966 0.179581 2.48308 0.078818 3.50747L1.19842 3.6176ZM14.9266 12.5075C14.8355 13.4332 14.6396 13.9325 14.2861 14.2861L15.0816 15.0816C15.7078 14.4554 15.9455 13.642 16.0462 12.6176L14.9266 12.5075Z" fill="white"/>
</svg>
