<svg width="13" height="16" viewBox="0 0 13 16" fill="none" xmlns="http://www.w3.org/2000/svg">
<path d="M0.75 8.30381H0C0 8.32131 0.000610101 8.33881 0.0018301 8.35621L0.75 8.30381ZM1.532 8.98981V8.23981C1.51683 8.23981 1.50167 8.24031 1.48653 8.24121L1.532 8.98981ZM10.967 8.98981L11.0555 8.24511C11.0261 8.24161 10.9966 8.23981 10.967 8.23981V8.98981ZM11.629 7.93781L12.2621 7.53581C12.2546 7.52391 12.2467 7.51221 12.2385 7.50081L11.629 7.93781ZM9.693 5.23783L10.3026 4.80076L10.2967 4.79283L9.693 5.23783ZM9.693 4.50683L10.2968 4.95188L10.3025 4.94387L9.693 4.50683ZM11.629 1.80683L12.2385 2.24387C12.2467 2.23243 12.2546 2.22076 12.2621 2.20888L11.629 1.80683ZM10.967 0.754833V1.50483C10.9966 1.50483 11.0261 1.50308 11.0555 1.49959L10.967 0.754833ZM1.532 0.754833L1.48653 1.50345C1.50167 1.50437 1.51683 1.50483 1.532 1.50483V0.754833ZM0.75 1.44083L0.0018301 1.38842C0.000610101 1.40587 0 1.42335 0 1.44083H0.75ZM1.5 8.30381C1.5 7.88961 1.16421 7.55381 0.75 7.55381C0.33579 7.55381 0 7.88961 0 8.30381H1.5ZM0 14.7548C0 15.169 0.33579 15.5048 0.75 15.5048C1.16421 15.5048 1.5 15.169 1.5 14.7548H0ZM0.0018301 8.35621C0.0589201 9.17121 0.76201 9.78801 1.57747 9.73841L1.48653 8.24121C1.48632 8.24121 1.48688 8.24121 1.48797 8.24131C1.48901 8.24151 1.49008 8.24171 1.49107 8.24211C1.49295 8.24271 1.49396 8.24351 1.49445 8.24391C1.49494 8.24431 1.49581 8.24521 1.4967 8.24701C1.49718 8.24801 1.49758 8.24901 1.49786 8.25001C1.49815 8.25111 1.49818 8.25161 1.49817 8.25141L0.0018301 8.35621ZM1.532 9.73981H10.967V8.23981H1.532V9.73981ZM10.8785 9.73461C11.4298 9.80011 11.9696 9.54241 12.2653 9.07251L10.9957 8.27361C11.0085 8.25341 11.0318 8.24221 11.0555 8.24511L10.8785 9.73461ZM12.2653 9.07251C12.561 8.60261 12.5598 8.00451 12.2621 7.53581L10.9959 8.33991C10.983 8.31971 10.983 8.29391 10.9957 8.27361L12.2653 9.07251ZM12.2385 7.50081L10.3026 4.80076L9.0835 5.67487L11.0195 8.37491L12.2385 7.50081ZM10.2967 4.79283C10.3316 4.8401 10.3317 4.9046 10.2968 4.95188L9.0893 4.06183C8.734 4.54377 8.734 5.20089 9.0893 5.68284L10.2967 4.79283ZM10.3025 4.94387L12.2385 2.24387L11.0195 1.3698L9.0835 4.0698L10.3025 4.94387ZM12.2621 2.20888C12.5598 1.74019 12.561 1.14205 12.2653 0.672153L10.9957 1.47105C10.983 1.45079 10.983 1.425 10.9959 1.40479L12.2621 2.20888ZM12.2653 0.672153C11.9696 0.202253 11.4298 -0.0554473 10.8785 0.0100827L11.0555 1.49959C11.0318 1.50242 11.0085 1.49131 10.9957 1.47105L12.2653 0.672153ZM10.967 0.00483271H1.532V1.50483H10.967V0.00483271ZM1.57747 0.00621267C0.76201 -0.0433173 0.0589201 0.573453 0.0018301 1.38842L1.49817 1.49324C1.49818 1.49304 1.49815 1.4936 1.49786 1.49466C1.49758 1.49567 1.49718 1.4967 1.4967 1.49763C1.49581 1.49941 1.49494 1.50031 1.49445 1.50074C1.49396 1.50117 1.49295 1.50192 1.49107 1.50258C1.49008 1.50292 1.48901 1.50318 1.48797 1.50333C1.48688 1.50348 1.48632 1.50344 1.48653 1.50345L1.57747 0.00621267ZM0 1.44083V8.30381H1.5V1.44083H0ZM0 8.30381V12.0487H1.5V8.30381H0ZM0 12.0487V14.7548H1.5V12.0487H0Z" fill="#777777"/>
</svg>
