<svg width="58" height="58" viewBox="0 0 58 58" fill="none" xmlns="http://www.w3.org/2000/svg">
<path d="M20.6668 28.6667C20.6668 30.1395 19.4729 31.3333 18.0002 31.3333C16.5274 31.3333 15.3335 30.1395 15.3335 28.6667C15.3335 27.1939 16.5274 26 18.0002 26C19.4729 26 20.6668 27.1939 20.6668 28.6667Z" fill="#288296"/>
<path d="M31.3333 28.6667C31.3333 30.1395 30.1395 31.3333 28.6667 31.3333C27.1939 31.3333 26 30.1395 26 28.6667C26 27.1939 27.1939 26 28.6667 26C30.1395 26 31.3333 27.1939 31.3333 28.6667Z" fill="#288296"/>
<path d="M36.6665 2V55.3333" stroke="#288296" stroke-width="4" stroke-linecap="round"/>
<path d="M55.3333 28.6673C55.3333 38.7239 55.3333 43.7524 52.2091 46.8764C49.3741 49.7113 44.9715 49.974 36.6667 49.9983M28.6667 7.33398H23.3333C13.2767 7.33398 8.2484 7.33398 5.12419 10.4582C2 13.5824 2 18.6107 2 28.6673C2 38.7239 2 43.7524 5.12419 46.8764C8.2484 50.0007 13.2767 50.0007 23.3333 50.0007H28.6667M36.6667 7.33646C44.9715 7.36076 49.3741 7.62326 52.2091 10.4582C53.9509 12.2 54.7216 14.5337 55.0627 18.0007" stroke="#288296" stroke-width="4" stroke-linecap="round"/>
</svg>
