<svg width="24" height="24" viewBox="0 0 24 24" fill="none" xmlns="http://www.w3.org/2000/svg">
<g clip-path="url(#clip0_12_38)">
<path d="M17.6933 11.9991C17.6906 11.1027 17.5945 10.209 17.4067 9.33242H19.8067C19.6831 8.9668 19.5338 8.61036 19.36 8.26576H17.1267C16.7068 6.86313 16.0557 5.54048 15.2 4.35242C14.6533 4.12256 14.0833 3.95267 13.5 3.84576C14.6722 5.10525 15.557 6.60421 16.0933 8.23909H12.5V3.73242C12.3333 3.73242 12.16 3.73242 11.9867 3.73242C11.8133 3.73242 11.66 3.73242 11.5 3.73242V8.24576H7.90667C8.44406 6.60792 9.33123 5.10655 10.5067 3.84576C9.92585 3.95089 9.35811 4.11853 8.81334 4.34576C7.95431 5.52884 7.29865 6.84692 6.87334 8.24576H4.62667C4.44972 8.59665 4.29822 8.9598 4.17334 9.33242H6.59334C6.40553 10.209 6.30946 11.1027 6.30667 11.9991C6.30852 12.9796 6.42033 13.9568 6.64001 14.9124H4.28001C4.41793 15.2861 4.5828 15.6493 4.77334 15.9991H6.92667C7.33481 17.2763 7.93988 18.4819 8.72001 19.5724C9.27866 19.812 9.86225 19.9887 10.46 20.0991C9.37195 18.9123 8.53518 17.5176 8.00001 15.9991H11.5067V20.2258C11.6667 20.2258 11.8333 20.2258 11.9933 20.2258C12.1533 20.2258 12.3333 20.2258 12.5067 20.2258V15.9991H16C15.463 17.5183 14.6239 18.913 13.5333 20.0991C14.1339 19.9849 14.7198 19.8037 15.28 19.5591C16.0589 18.4727 16.6639 17.2716 17.0733 15.9991H19.2067C19.3963 15.6557 19.5612 15.2993 19.7 14.9324H17.3333C17.5635 13.9713 17.6843 12.9873 17.6933 11.9991ZM11.5 14.9124H7.67334C7.20399 13.0777 7.18341 11.1568 7.61334 9.31242H11.5V14.9124ZM16.3267 14.9124H12.5V9.33242H16.3867C16.5782 10.2082 16.6721 11.1026 16.6667 11.9991C16.6721 12.9804 16.5579 13.9587 16.3267 14.9124Z" fill="#DB555B"/>
<path d="M12.0002 1.33398C9.8905 1.33398 7.82821 1.95957 6.07409 3.13164C4.31996 4.30371 2.95279 5.96962 2.14545 7.91869C1.33812 9.86777 1.12688 12.0125 1.53846 14.0816C1.95003 16.1507 2.96594 18.0514 4.4577 19.5431C5.94946 21.0349 7.85007 22.0508 9.9192 22.4624C11.9883 22.8739 14.133 22.6627 16.0821 21.8554C18.0312 21.048 19.6971 19.6809 20.8692 17.9267C22.0412 16.1726 22.6668 14.1103 22.6668 12.0007C22.6668 9.17168 21.543 6.45857 19.5426 4.45818C17.5423 2.45779 14.8291 1.33398 12.0002 1.33398ZM12.0002 21.334C10.1542 21.334 8.3497 20.7866 6.81485 19.761C5.27999 18.7355 4.08371 17.2778 3.37729 15.5724C2.67087 13.8669 2.48604 11.9903 2.84617 10.1798C3.2063 8.36932 4.09521 6.70628 5.4005 5.40099C6.70579 4.0957 8.36884 3.20678 10.1793 2.84666C11.9898 2.48653 13.8664 2.67136 15.5719 3.37778C17.2773 4.08419 18.735 5.28047 19.7606 6.81533C20.7861 8.35019 21.3335 10.1547 21.3335 12.0007C21.3335 14.476 20.3502 16.85 18.5998 18.6003C16.8495 20.3507 14.4755 21.334 12.0002 21.334Z" fill="#DB555B"/>
</g>
<defs>
<clipPath id="clip0_12_38">
<rect width="24" height="24" fill="white"/>
</clipPath>
</defs>
</svg>
