<svg width="23" height="23" viewBox="0 0 23 23" fill="none" xmlns="http://www.w3.org/2000/svg">
<path fill-rule="evenodd" clip-rule="evenodd" d="M6.56076 0.13718C4.74121 0.219278 3.16412 0.664136 1.89065 1.93222C0.61274 3.20698 0.173408 4.79031 0.0911053 6.59094C0.0399441 7.71481 -0.25922 16.2054 0.608293 18.432C1.19331 19.9342 2.34551 21.0892 3.86144 21.6761C4.56879 21.9512 5.37627 22.1375 6.56076 22.1918C16.4649 22.6401 20.1362 22.396 21.6844 18.432C21.9591 17.7264 22.1482 16.9196 22.2004 15.7381C22.6531 5.80858 22.1271 3.6563 20.4009 1.93222C19.0318 0.566501 17.4214 -0.363178 6.56076 0.13718ZM6.65194 20.1949C5.56755 20.146 4.9792 19.9654 4.5866 19.8134C3.59897 19.4295 2.85714 18.6907 2.47565 17.7089C1.81501 16.017 2.03412 7.98126 2.09307 6.68099C2.1509 5.40735 2.40893 4.24333 3.30758 3.34468C4.41978 2.23524 5.85672 1.69151 15.6407 2.13307C16.9175 2.19076 18.0842 2.44826 18.9851 3.34468C20.0973 4.45412 20.6489 5.90212 20.1996 15.6486C20.1507 16.7303 19.9694 17.3172 19.817 17.7089C18.8105 20.2883 16.4949 20.6464 6.65194 20.1949ZM15.7486 5.24179C15.7486 5.97625 16.3459 6.57347 17.0833 6.57347C17.8206 6.57347 18.419 5.97625 18.419 5.24179C18.419 4.50734 17.8206 3.91065 17.0833 3.91065C16.3459 3.91065 15.7486 4.50734 15.7486 5.24179ZM5.43521 11.164C5.43521 14.3103 7.99215 16.8613 11.1463 16.8613C14.3005 16.8613 16.8575 14.3103 16.8575 11.164C16.8575 8.01759 14.3005 5.46828 11.1463 5.46828C7.99215 5.46828 5.43521 8.01759 5.43521 11.164ZM7.43938 11.164C7.43938 9.1226 9.09879 7.46636 11.1463 7.46636C13.1939 7.46636 14.8533 9.1226 14.8533 11.164C14.8533 13.2064 13.1939 14.8632 11.1463 14.8632C9.09879 14.8632 7.43938 13.2064 7.43938 11.164Z" fill="white"/>
</svg>
