<svg width="16" height="16" viewBox="0 0 16 16" fill="none" xmlns="http://www.w3.org/2000/svg">
  <path d="M14.5 1.5H1.5C0.95 1.5 0.5 1.95 0.5 2.5V13.5C0.5 14.05 0.95 14.5 1.5 14.5H14.5C15.05 14.5 15.5 14.05 15.5 13.5V2.5C15.5 1.95 15.05 1.5 14.5 1.5ZM5.2 12.75H3.1V6.5H5.2V12.75ZM4.15 5.55C3.48 5.55 2.93 5 2.93 4.32C2.93 3.65 3.48 3.1 4.15 3.1C4.83 3.1 5.38 3.65 5.38 4.32C5.38 5 4.83 5.55 4.15 5.55ZM12.9 12.75H10.8V9.55C10.8 8.7 10.78 7.6 9.6 7.6C8.4 7.6 8.22 8.52 8.22 9.48V12.75H6.12V6.5H8.13V7.35H8.16C8.45 6.82 9.15 6.25 10.2 6.25C12.4 6.25 12.9 7.65 12.9 9.2V12.75Z" fill="currentColor"/>
</svg>
