<svg width="64" height="64" viewBox="0 0 64 64" fill="none" xmlns="http://www.w3.org/2000/svg">
<path d="M51.7865 31.3334H42.6665C41.5732 31.3334 40.6665 30.4267 40.6665 29.3334V10.6934C40.6665 8.72004 41.4398 6.88004 42.8265 5.49338C44.2132 4.10671 46.0532 3.33337 48.0265 3.33337H48.0532C51.3865 3.36004 54.5332 4.66671 56.9332 7.04004C59.3332 9.46671 60.6398 12.6667 60.6398 16V22.4534C60.6665 27.76 57.0932 31.3334 51.7865 31.3334ZM44.6665 27.3334H51.7865C54.8798 27.3334 56.6665 25.5467 56.6665 22.4534V16C56.6665 13.7067 55.7598 11.52 54.1332 9.86671C52.5065 8.26671 50.3198 7.36004 48.0532 7.33337C48.0532 7.33337 48.0532 7.33337 48.0265 7.33337C47.1465 7.33337 46.2932 7.68004 45.6532 8.32004C45.0132 8.96004 44.6665 9.7867 44.6665 10.6934V27.3334Z" fill="#4598AC"/>
<path d="M24.0002 62.2134C22.7468 62.2134 21.5735 61.7334 20.6935 60.8267L16.2668 56.3734C16.0268 56.1334 15.6535 56.1067 15.3868 56.32L10.8002 59.7334C9.38683 60.8 7.52016 60.9867 5.92016 60.1867C4.32016 59.3867 3.3335 57.7867 3.3335 56V16C3.3335 7.94671 7.94683 3.33337 16.0002 3.33337H48.0002C49.0935 3.33337 50.0002 4.24004 50.0002 5.33337C50.0002 6.42671 49.0935 7.33337 48.0002 7.33337C46.1602 7.33337 44.6668 8.82671 44.6668 10.6667V56C44.6668 57.7867 43.6802 59.3867 42.0802 60.1867C40.4802 60.9867 38.6135 60.8267 37.2002 59.7601L32.6402 56.3467C32.3735 56.1334 32.0002 56.1867 31.7868 56.4L27.3068 60.88C26.4268 61.7334 25.2535 62.2134 24.0002 62.2134ZM15.7602 52.1867C16.9868 52.1867 18.1868 52.64 19.0935 53.5734L23.5202 58.0267C23.6802 58.1867 23.8935 58.2134 24.0002 58.2134C24.1068 58.2134 24.3202 58.1867 24.4802 58.0267L28.9602 53.5467C30.6135 51.8934 33.2268 51.7334 35.0668 53.1467L39.6002 56.5334C39.8935 56.7467 40.1602 56.6667 40.2935 56.5867C40.4268 56.5067 40.6668 56.3467 40.6668 56V10.6667C40.6668 9.46671 40.9602 8.32004 41.4668 7.33337H16.0002C10.0802 7.33337 7.3335 10.08 7.3335 16V56C7.3335 56.3734 7.5735 56.5334 7.70683 56.6134C7.86683 56.6934 8.1335 56.7467 8.40016 56.5334L12.9602 53.12C13.7868 52.5067 14.7735 52.1867 15.7602 52.1867Z" fill="#4598AC"/>
<path d="M32 36.6934H24C22.9067 36.6934 22 35.7867 22 34.6934C22 33.6 22.9067 32.6934 24 32.6934H32C33.0933 32.6934 34 33.6 34 34.6934C34 35.7867 33.0933 36.6934 32 36.6934Z" fill="#4598AC"/>
<path d="M32 26.0267H24C22.9067 26.0267 22 25.1201 22 24.0267C22 22.9334 22.9067 22.0267 24 22.0267H32C33.0933 22.0267 34 22.9334 34 24.0267C34 25.1201 33.0933 26.0267 32 26.0267Z" fill="#4598AC"/>
<path d="M15.9206 26.6933C14.4539 26.6933 13.2539 25.4933 13.2539 24.0267C13.2539 22.56 14.4539 21.36 15.9206 21.36C17.3872 21.36 18.5872 22.56 18.5872 24.0267C18.5872 25.4933 17.3872 26.6933 15.9206 26.6933Z" fill="#4598AC"/>
<path d="M15.9206 37.3601C14.4539 37.3601 13.2539 36.1601 13.2539 34.6934C13.2539 33.2267 14.4539 32.0267 15.9206 32.0267C17.3872 32.0267 18.5872 33.2267 18.5872 34.6934C18.5872 36.1601 17.3872 37.3601 15.9206 37.3601Z" fill="#4598AC"/>
</svg>
