<svg width="20" height="20" viewBox="0 0 20 20" fill="none" xmlns="http://www.w3.org/2000/svg">
<path d="M17.0168 10.1833C16.6751 10.1833 16.3918 9.89998 16.3918 9.55831V6.79169C16.3918 5.75835 15.5501 4.91669 14.5168 4.91669H2.9834C2.64173 4.91669 2.3584 4.63335 2.3584 4.29169C2.3584 3.95002 2.64173 3.66669 2.9834 3.66669H14.5168C16.2418 3.66669 17.6418 5.06669 17.6418 6.79169V9.55831C17.6418 9.90831 17.3584 10.1833 17.0168 10.1833Z" fill="#151515"/>
<path d="M5.61673 7.55832C5.4584 7.55832 5.30007 7.49996 5.17507 7.37496L2.54173 4.74164C2.42507 4.62498 2.3584 4.46662 2.3584 4.29995C2.3584 4.13329 2.42507 3.97498 2.54173 3.85831L5.17507 1.22495C5.41674 0.983285 5.81673 0.983285 6.0584 1.22495C6.30007 1.46662 6.30007 1.86667 6.0584 2.10833L3.86676 4.29995L6.0584 6.49162C6.30007 6.73329 6.30007 7.13329 6.0584 7.37496C5.9334 7.49162 5.77507 7.55832 5.61673 7.55832Z" fill="#151515"/>
<path d="M17.0168 16.325H5.4834C3.7584 16.325 2.3584 14.925 2.3584 13.2V10.4333C2.3584 10.0917 2.64173 9.80835 2.9834 9.80835C3.32507 9.80835 3.6084 10.0917 3.6084 10.4333V13.2C3.6084 14.2334 4.45007 15.075 5.4834 15.075H17.0168C17.3584 15.075 17.6418 15.3584 17.6418 15.7C17.6418 16.0417 17.3584 16.325 17.0168 16.325Z" fill="#151515"/>
<path d="M14.3837 18.9583C14.2253 18.9583 14.067 18.9 13.942 18.775C13.7003 18.5333 13.7003 18.1333 13.942 17.8916L16.1336 15.7L13.942 13.5083C13.7003 13.2667 13.7003 12.8667 13.942 12.625C14.1837 12.3833 14.5837 12.3833 14.8253 12.625L17.4587 15.2583C17.5753 15.375 17.642 15.5333 17.642 15.7C17.642 15.8667 17.5753 16.025 17.4587 16.1416L14.8253 18.775C14.7087 18.9 14.5503 18.9583 14.3837 18.9583Z" fill="#151515"/>
</svg>
