<svg width="20" height="20" viewBox="0 0 20 20" fill="none" xmlns="http://www.w3.org/2000/svg">
<path d="M14.1665 17.7083H5.83317C5.4915 17.7083 5.20817 17.425 5.20817 17.0833C5.20817 16.7417 5.4915 16.4583 5.83317 16.4583H14.1665C16.5498 16.4583 17.7082 15.3 17.7082 12.9167V7.08334C17.7082 4.70001 16.5498 3.54167 14.1665 3.54167H5.83317C3.44984 3.54167 2.2915 4.70001 2.2915 7.08334C2.2915 7.425 2.00817 7.70834 1.6665 7.70834C1.32484 7.70834 1.0415 7.425 1.0415 7.08334C1.0415 4.04167 2.7915 2.29167 5.83317 2.29167H14.1665C17.2082 2.29167 18.9582 4.04167 18.9582 7.08334V12.9167C18.9582 15.9583 17.2082 17.7083 14.1665 17.7083Z" fill="#151515"/>
<path d="M9.99998 10.725C9.29998 10.725 8.59165 10.5083 8.04998 10.0666L5.44164 7.98331C5.17498 7.76664 5.12498 7.37497 5.34165 7.10831C5.55831 6.84164 5.94997 6.79164 6.21664 7.00831L8.82498 9.09164C9.45831 9.59998 10.5333 9.59998 11.1666 9.09164L13.775 7.00831C14.0416 6.79164 14.4416 6.83331 14.65 7.10831C14.8666 7.37497 14.825 7.77498 14.55 7.98331L11.9416 10.0666C11.4083 10.5083 10.7 10.725 9.99998 10.725Z" fill="#151515"/>
<path d="M6.6665 14.375H1.6665C1.32484 14.375 1.0415 14.0917 1.0415 13.75C1.0415 13.4083 1.32484 13.125 1.6665 13.125H6.6665C7.00817 13.125 7.2915 13.4083 7.2915 13.75C7.2915 14.0917 7.00817 14.375 6.6665 14.375Z" fill="#151515"/>
<path d="M4.1665 11.0417H1.6665C1.32484 11.0417 1.0415 10.7583 1.0415 10.4167C1.0415 10.075 1.32484 9.79167 1.6665 9.79167H4.1665C4.50817 9.79167 4.7915 10.075 4.7915 10.4167C4.7915 10.7583 4.50817 11.0417 4.1665 11.0417Z" fill="#151515"/>
</svg>
