<svg width="27" height="25" viewBox="0 0 27 25" fill="none" xmlns="http://www.w3.org/2000/svg">
<path d="M13.3438 0.00262502C13.3691 0.00262502 13.3998 0.00174998 13.4304 0.00174998C16.2733 0.00174998 18.7189 1.69925 19.81 4.13612L19.8275 4.18075C20.1189 5.21325 20.286 6.398 20.286 7.623C20.286 8.27838 20.2379 8.92238 20.1451 9.55238L20.1539 9.48063L20.1504 9.54625C20.1372 9.74313 20.1268 9.92338 20.118 10.1036C20.2335 10.1666 20.3709 10.2034 20.517 10.2034C20.531 10.2034 20.545 10.2034 20.559 10.2025H20.5572C20.9755 10.1631 21.3588 10.0459 21.7035 9.86563L21.6869 9.8735C21.8286 9.80175 21.9949 9.75975 22.1716 9.75975C22.1795 9.75975 22.1874 9.75975 22.1952 9.75975C22.2022 9.75975 22.2093 9.75975 22.2171 9.75975C22.4088 9.75975 22.5925 9.79562 22.7614 9.86213L22.7509 9.85863C23.1849 9.961 23.5104 10.3241 23.5532 10.7704V10.7747C23.5696 11.2659 23.1274 11.6918 22.2267 12.0522C22.1296 12.0837 21.9984 12.1345 21.8505 12.1826C21.3587 12.3305 20.6054 12.5764 20.3927 13.0681C20.3612 13.1679 20.3438 13.2816 20.3438 13.4006C20.3438 13.6299 20.4111 13.8434 20.5266 14.0219L20.524 14.0175L20.5406 14.0341C21.518 16.2155 23.4159 17.8351 25.7259 18.4118L25.7792 18.4231C26.0409 18.466 26.2386 18.6909 26.2386 18.9621C26.2386 18.9683 26.2386 18.9744 26.2386 18.9805C26.2377 19.0697 26.2203 19.1529 26.1879 19.2299L26.1896 19.2255C25.9271 19.8476 24.7975 20.3061 22.75 20.615C22.6739 20.7935 22.6117 21.0035 22.5732 21.2205L22.5706 21.238C22.5304 21.4725 22.4796 21.6764 22.4158 21.8741L22.4245 21.8426C22.3641 22.099 22.1366 22.2871 21.8662 22.2871C21.8496 22.2871 21.8321 22.2862 21.8155 22.2845H21.8172H21.7849C21.5696 22.2731 21.3684 22.2442 21.1733 22.1987L21.1969 22.2031C20.7795 22.1095 20.3009 22.0553 19.8091 22.0553C19.8074 22.0553 19.8065 22.0553 19.8048 22.0553C19.7838 22.0553 19.7584 22.0544 19.733 22.0544C19.4058 22.0544 19.0855 22.0841 18.774 22.141L18.8064 22.1357C18.0801 22.33 17.4492 22.6634 16.9146 23.1087L16.9225 23.1026C15.953 23.9286 14.7035 24.451 13.3333 24.5105H13.321C13.2554 24.5105 13.1906 24.4939 13.1241 24.4939H12.9614C11.5833 24.4414 10.3364 23.9172 9.36862 23.079L9.37563 23.0851C8.85413 22.6467 8.2285 22.3134 7.54338 22.1261L7.50925 22.1182C7.2065 22.0701 6.85562 22.0404 6.49775 22.0377H6.49425C5.99725 22.0447 5.51863 22.1042 5.0575 22.2092L5.10388 22.2005C4.92975 22.2434 4.72762 22.2722 4.52025 22.281H4.51412C4.50012 22.2819 4.48438 22.2827 4.46863 22.2827C4.18425 22.2827 3.94625 22.0885 3.878 21.826L3.87713 21.8216C3.81063 21.6116 3.77912 21.3964 3.72925 21.2013C3.68813 20.9659 3.62512 20.7568 3.54025 20.559L3.54725 20.5782C1.44987 20.3359 0.322 19.8765 0.060375 19.2378C0.02625 19.166 0.004375 19.082 0 18.9936V18.9919C0 18.9858 0 18.9788 0 18.9717C0 18.7014 0.19775 18.4774 0.45675 18.4362H0.46025C2.82538 17.8465 4.72412 16.2251 5.67963 14.0892L5.69887 14.0402L5.71637 14.0087C5.83275 13.8381 5.90188 13.6272 5.90188 13.4006C5.90188 13.2781 5.88175 13.1609 5.845 13.0506L5.84763 13.0585C5.63413 12.5843 4.88075 12.3393 4.39075 12.1739C4.24375 12.1363 4.11775 12.0916 3.997 12.0374L4.01275 12.0435C2.80262 11.5675 2.63813 11.0268 2.70375 10.6514C2.88488 10.1413 3.36263 9.78338 3.92438 9.78338C3.9445 9.78338 3.96375 9.78425 3.98388 9.78513H3.98125C3.98213 9.78513 3.98213 9.78513 3.98388 9.78513C4.1335 9.78513 4.277 9.81488 4.40738 9.86913L4.40037 9.8665C4.75125 10.0511 5.1625 10.1693 5.6 10.1938H5.60787C5.61837 10.1938 5.62975 10.1946 5.642 10.1946C5.81525 10.1946 5.97887 10.1518 6.12237 10.0765L6.11713 10.0791L6.06725 9.457C5.98588 8.9075 5.93863 8.27225 5.93863 7.6265C5.93863 6.39625 6.10838 5.2045 6.42425 4.07575L6.40238 4.1685C7.48475 1.70537 9.90325 0.01575 12.7164 0.01575C12.7549 0.01575 12.7934 0.0157499 12.831 0.0166249H12.8249L13.2834 0H13.349L13.3438 0.00262502Z" fill="white"/>
</svg>
