<svg width="34" height="34" viewBox="0 0 34 34" fill="none" xmlns="http://www.w3.org/2000/svg">
<path d="M26.789 20.8144C26.789 22.6419 28.2907 24.1294 30.1182 24.1294C30.1182 29.4419 28.7865 30.7736 23.474 30.7736H10.1857C4.87317 30.7736 3.5415 29.4419 3.5415 24.1294V23.4777C5.369 23.4777 6.87067 21.9761 6.87067 20.1486C6.87067 18.3211 5.369 16.8194 3.5415 16.8194V16.1677C3.55567 10.8552 4.87317 9.52356 10.1857 9.52356H23.4598C28.7723 9.52356 30.104 10.8552 30.104 16.1677V17.4994C28.2765 17.4994 26.789 18.9727 26.789 20.8144Z" stroke="#292D32" stroke-width="1.5" stroke-linecap="round" stroke-linejoin="round"/>
<path d="M22.9659 9.52352H10.0884L14.2392 5.37269C17.625 1.98685 19.325 1.98685 22.7109 5.37269L23.5609 6.22269C22.6684 7.11519 22.4559 8.43269 22.9659 9.52352Z" stroke="#292D32" stroke-width="1.5" stroke-linecap="round" stroke-linejoin="round"/>
<path d="M13.9951 9.52374L13.9951 30.7737" stroke="#292D32" stroke-width="1.5" stroke-linecap="round" stroke-linejoin="round" stroke-dasharray="5 5"/>
</svg>
