<svg width="32" height="32" viewBox="0 0 32 32" fill="none" xmlns="http://www.w3.org/2000/svg">
<path d="M8.45095 19.7931C8.60723 18.4992 9.1379 17.7748 10.1379 17.0322C11.5688 16.0264 13.3561 16.5953 13.3561 16.5953V13.2201C13.7907 13.209 14.2254 13.2348 14.6551 13.2971V17.6406C14.6551 17.6406 12.8683 17.0717 11.4375 18.078C10.438 18.8201 9.90623 19.5451 9.7505 20.839C9.74562 21.5416 9.87747 22.46 10.4847 23.2541C10.3345 23.1771 10.1815 23.0894 10.0256 22.991C8.68807 22.0928 8.44444 20.7454 8.45095 19.7931ZM22.0352 6.97947C21.0509 5.90087 20.6786 4.81188 20.5441 4.04688H21.7823C21.7823 4.04688 21.5354 6.05273 23.3347 8.0253L23.3597 8.05183C22.8747 7.74679 22.43 7.38673 22.0352 6.97947ZM28 10.0374V14.2935C28 14.2935 26.42 14.2317 25.2507 13.9342C23.6179 13.5181 22.5685 12.88 22.5685 12.88C22.5685 12.88 21.8436 12.425 21.785 12.3933V21.1822C21.785 21.6716 21.651 22.8937 21.2424 23.913C20.709 25.2464 19.8859 26.1217 19.7345 26.3006C19.7345 26.3006 18.7334 27.4837 16.9672 28.2804C15.3752 28.9992 13.9774 28.981 13.5596 28.9992C13.5596 28.9992 11.1434 29.0949 8.96915 27.6819C8.49898 27.3704 8.06011 27.0177 7.6582 26.6282L7.66906 26.636C9.84383 28.049 12.2595 27.9533 12.2595 27.9533C12.6779 27.9351 14.0756 27.9533 15.6671 27.2346C17.4317 26.4379 18.4344 25.2548 18.4344 25.2548C18.5842 25.0759 19.4111 24.2006 19.9423 22.8667C20.3498 21.8479 20.4849 20.6252 20.4849 20.1358V11.3479C20.5435 11.3802 21.2679 11.8352 21.2679 11.8352C21.2679 11.8352 22.3179 12.4739 23.9506 12.8894C25.1204 13.1869 26.7 13.2487 26.7 13.2487V9.91363C27.2404 10.0348 27.7011 10.0676 28 10.0374Z" fill="#EE1D52"/>
<path d="M26.7004 9.91363V13.2477C26.7004 13.2477 25.1208 13.1858 23.951 12.8883C22.3183 12.4723 21.2683 11.8342 21.2683 11.8342C21.2683 11.8342 20.5439 11.3791 20.4853 11.3469V20.1369C20.4853 20.6263 20.3513 21.8489 19.9427 22.8677C19.4093 24.2016 18.5862 25.0769 18.4348 25.2558C18.4348 25.2558 17.4332 26.4389 15.6675 27.2357C14.076 27.9544 12.6783 27.9362 12.2599 27.9544C12.2599 27.9544 9.84424 28.0501 7.66946 26.6371L7.65861 26.6293C7.429 26.4069 7.21287 26.1722 7.01128 25.9262C6.31728 25.08 5.89188 24.0794 5.78498 23.7939C5.7848 23.7927 5.7848 23.7915 5.78498 23.7903C5.61298 23.2941 5.2516 22.1027 5.30098 20.9487C5.38834 18.9127 6.10458 17.663 6.29395 17.3499C6.79549 16.4962 7.44779 15.7323 8.22184 15.0923C8.90489 14.5401 9.67911 14.1007 10.5127 13.7922C11.4139 13.43 12.3789 13.2358 13.356 13.2201V16.5953C13.356 16.5953 11.5686 16.0284 10.1383 17.0322C9.13831 17.7748 8.60763 18.4992 8.45136 19.7931C8.44485 20.7454 8.68848 22.0928 10.0249 22.9915C10.1808 23.0903 10.3339 23.178 10.484 23.2546C10.7175 23.5581 11.0016 23.8226 11.325 24.0373C12.6305 24.8637 13.7244 24.9214 15.1233 24.3847C16.056 24.0259 16.7582 23.2172 17.0837 22.3211C17.2883 21.7615 17.2856 21.1983 17.2856 20.6159V4.04688H20.5412C20.6758 4.81188 21.048 5.90087 22.0323 6.97947C22.4272 7.38673 22.8719 7.74679 23.3568 8.05183C23.5001 8.20004 24.2326 8.9328 25.1729 9.38265C25.6592 9.61518 26.1717 9.79334 26.7004 9.91363Z" fill="white"/>
<path d="M4.48926 22.7578V22.7604L4.57004 22.9794C4.56076 22.9539 4.53074 22.8764 4.48926 22.7578Z" fill="#69C9D0"/>
<path d="M10.5128 13.7926C9.67919 14.1011 8.90498 14.5405 8.22192 15.0928C7.44763 15.7342 6.79548 16.4996 6.29458 17.355C6.10521 17.667 5.38897 18.9178 5.30161 20.9538C5.25223 22.1078 5.61361 23.2992 5.78561 23.7954C5.78543 23.7966 5.78543 23.7978 5.78561 23.799C5.89413 24.0819 6.31791 25.0825 7.01191 25.9312C7.2135 26.1773 7.42963 26.412 7.65924 26.6344C6.92357 26.1467 6.26746 25.5571 5.71236 24.8849C5.02433 24.046 4.60001 23.0559 4.48932 22.7636C4.48919 22.7615 4.48919 22.7594 4.48932 22.7573V22.7537C4.31677 22.2581 3.95431 21.0661 4.00477 19.9106C4.09213 17.8745 4.80838 16.6248 4.99775 16.3118C5.4985 15.4563 6.15067 14.6908 6.92509 14.0495C7.608 13.4971 8.38225 13.0577 9.21598 12.7494C9.73602 12.5426 10.2778 12.39 10.8319 12.2943C11.6669 12.1546 12.5198 12.1425 13.3588 12.2585V13.2206C12.3808 13.2359 11.4148 13.4301 10.5128 13.7926Z" fill="#69C9D0"/>
<path d="M20.5438 4.04635H17.2881V20.6159C17.2881 21.1983 17.2881 21.76 17.0863 22.3211C16.7575 23.2167 16.058 24.0253 15.1258 24.3842C13.7265 24.923 12.6326 24.8632 11.3276 24.0368C11.0036 23.823 10.7187 23.5594 10.4844 23.2567C11.5962 23.8251 12.5913 23.8152 13.8241 23.341C14.7558 22.9821 15.4563 22.1734 15.784 21.2774C15.9891 20.7178 15.9864 20.1546 15.9864 19.5726V3H20.4819C20.4819 3 20.4315 3.41188 20.5438 4.04635ZM26.7002 8.99104V9.9131C26.1725 9.79263 25.6609 9.61447 25.1755 9.38213C24.2352 8.93228 23.5026 8.19952 23.3594 8.0513C23.5256 8.1559 23.6981 8.25106 23.8759 8.33629C25.0192 8.88339 26.1451 9.04669 26.7002 8.99104Z" fill="#69C9D0"/>
</svg>
