<svg width="24" height="21" viewBox="0 0 24 21" fill="none" xmlns="http://www.w3.org/2000/svg">
<path d="M11.75 8.75C13.9591 8.75 15.75 6.95914 15.75 4.75C15.75 2.54086 13.9591 0.75 11.75 0.75C9.54086 0.75 7.75 2.54086 7.75 4.75C7.75 6.95914 9.54086 8.75 11.75 8.75Z" stroke="white" stroke-width="1.5"/>
<path d="M17.75 7.75C19.4069 7.75 20.75 6.63071 20.75 5.25C20.75 3.86929 19.4069 2.75 17.75 2.75" stroke="white" stroke-width="1.5" stroke-linecap="round"/>
<path d="M5.75 7.75C4.09315 7.75 2.75 6.63071 2.75 5.25C2.75 3.86929 4.09315 2.75 5.75 2.75" stroke="white" stroke-width="1.5" stroke-linecap="round"/>
<path d="M11.75 19.75C15.0637 19.75 17.75 17.9591 17.75 15.75C17.75 13.5409 15.0637 11.75 11.75 11.75C8.43629 11.75 5.75 13.5409 5.75 15.75C5.75 17.9591 8.43629 19.75 11.75 19.75Z" stroke="white" stroke-width="1.5"/>
<path d="M19.75 17.75C21.5042 17.3653 22.75 16.3911 22.75 15.25C22.75 14.1089 21.5042 13.1347 19.75 12.75" stroke="white" stroke-width="1.5" stroke-linecap="round"/>
<path d="M3.75 17.75C1.99575 17.3653 0.75 16.3911 0.75 15.25C0.75 14.1089 1.99575 13.1347 3.75 12.75" stroke="white" stroke-width="1.5" stroke-linecap="round"/>
</svg>
