<svg width="20" height="20" viewBox="0 0 20 20" fill="none" xmlns="http://www.w3.org/2000/svg">
<path d="M0 20L1.41152 14.8691C0.54422 13.3639 0.0887601 11.6568 0.0909901 9.9196C0.0809501 4.44549 4.52644 0 9.99 0C12.6417 0 15.1315 1.02806 17.0062 2.9034C17.9303 3.82266 18.6627 4.91616 19.1611 6.12054C19.6595 7.32492 19.9139 8.6162 19.9096 9.9196C19.9096 15.3832 15.4641 19.8287 10 19.8287C8.3368 19.8287 6.71374 19.4151 5.26204 18.6192L0 20ZM5.49424 16.8349L5.79675 17.0162C7.06649 17.7676 8.5146 18.1644 9.99 18.1654C14.5264 18.1654 18.2263 14.4662 18.2263 9.9291C18.2263 7.73176 17.3696 5.65554 15.8168 4.1034C15.0533 3.33553 14.1453 2.72636 13.1453 2.31101C12.1452 1.89565 11.0728 1.68232 9.99 1.68331C5.44343 1.6839 1.74476 5.38316 1.74476 9.9202C1.74476 11.4724 2.17843 12.995 3.00502 14.3055L3.19645 14.618L2.35982 17.662L5.49424 16.8349Z" fill="white"/>
<path fill-rule="evenodd" clip-rule="evenodd" d="M7.51939 5.76571C7.338 5.35212 7.13652 5.34207 6.96518 5.34207C6.81392 5.33203 6.65203 5.33203 6.48069 5.33203C6.31998 5.33203 6.0476 5.3923 5.81599 5.64458C5.58379 5.89628 4.94922 6.49126 4.94922 7.71076C4.94922 8.93089 5.83608 10.1102 5.9572 10.2715C6.07773 10.4328 7.67064 13.013 10.1911 14.0115C12.2874 14.8381 12.7111 14.6768 13.1648 14.626C13.618 14.5758 14.6266 14.0316 14.8382 13.4467C15.0396 12.8724 15.0396 12.3684 14.9793 12.2673C14.919 12.1669 14.7471 12.106 14.5055 11.9749C14.2532 11.8543 13.0437 11.2493 12.8121 11.1684C12.5799 11.088 12.4186 11.0478 12.2573 11.2895C12.096 11.5418 11.6221 12.096 11.4715 12.2573C11.3297 12.4186 11.179 12.4387 10.9368 12.3176C10.6851 12.197 9.88865 11.9347 8.94095 11.088C8.20475 10.4322 7.71082 9.61619 7.55956 9.37459C7.41894 9.12229 7.53947 8.99109 7.67064 8.86999C7.78172 8.75949 7.92293 8.57809 8.04405 8.43689C8.16455 8.29509 8.20475 8.18459 8.29575 8.02329C8.37615 7.86201 8.33595 7.71076 8.27565 7.59023C8.21485 7.47915 7.74154 6.25965 7.51939 5.76571Z" fill="white"/>
</svg>
