<svg width="18" height="22" viewBox="0 0 18 22" fill="none" xmlns="http://www.w3.org/2000/svg">
<path d="M2.5 7.75H14.5" stroke="#EF4550" stroke-width="2" stroke-miterlimit="10" stroke-linecap="round" stroke-linejoin="round"/>
<path d="M6.62461 4.825L5.72461 1.675C7.44961 0.775 9.54961 0.775 11.2746 1.675L10.3746 4.825" stroke="#EF4550" stroke-width="2" stroke-miterlimit="10" stroke-linecap="round" stroke-linejoin="round"/>
<path d="M11.125 2.42499C12.625 3.32499 13.6 4.97499 13.6 6.84999V7.74999" stroke="#EF4550" stroke-width="2" stroke-miterlimit="10" stroke-linecap="round" stroke-linejoin="round"/>
<path d="M3.40039 7.74999V6.84999C3.40039 4.97499 4.37539 3.32499 5.87539 2.42499" stroke="#EF4550" stroke-width="2" stroke-miterlimit="10" stroke-linecap="round" stroke-linejoin="round"/>
<path d="M12.7 16.3C11.35 15.925 10.375 14.575 10.375 13C11.35 12.4 11.95 11.275 12.175 10C10.525 10 9.1 9.1 8.35 7.75H4.75V9.25C4.75 10.825 5.425 12.25 6.625 13C6.625 14.575 5.65 15.925 4.225 16.3C2.575 16.75 1.375 18.25 1 20.05C1 20.275 1.15 20.5 1.375 20.5H15.7C15.925 20.5 16.075 20.275 16 20.05C15.625 18.175 14.35 16.75 12.7 16.3Z" stroke="#EF4550" stroke-width="2" stroke-miterlimit="10" stroke-linejoin="round"/>
</svg>
