<svg width="141" height="28" viewBox="0 0 141 28" fill="none" xmlns="http://www.w3.org/2000/svg">
<path d="M52.6308 25.6886C47.7168 25.6886 43.7029 21.6747 43.7029 16.7607V15.3984C43.7029 14.1821 44.6881 13.209 45.8923 13.209C47.0965 13.209 48.0695 14.1821 48.0695 15.3984V16.7607C48.0695 19.2785 50.1251 21.3219 52.6308 21.3219C55.1486 21.3219 57.192 19.2785 57.192 16.7607C57.192 15.5565 58.1773 14.5713 59.3814 14.5713C60.5856 14.5713 61.5587 15.5565 61.5587 16.7607C61.5587 21.6747 57.5569 25.6886 52.6308 25.6886Z" fill="#4598AC"/>
<path d="M66.12 25.6886C61.206 25.6886 57.1921 21.6747 57.1921 16.7607V15.3984C57.1921 14.1821 58.1774 13.209 59.3815 13.209C60.5857 13.209 61.5588 14.1821 61.5588 15.3984V16.7607C61.5588 19.2785 63.6144 21.3219 66.12 21.3219C68.6378 21.3219 70.6813 19.2785 70.6813 16.7607V15.3984C70.6813 14.1821 71.6665 13.209 72.8707 13.209C74.0749 13.209 75.0479 14.1821 75.0479 15.3984V16.7607C75.0479 21.6747 71.0462 25.6886 66.12 25.6886Z" fill="#4598AC"/>
<path fill-rule="evenodd" clip-rule="evenodd" d="M86.6759 22.283C81.762 22.283 77.748 18.2691 77.748 13.3429C77.748 8.42894 81.762 4.41504 86.6759 4.41504C91.6021 4.41504 95.6038 8.42894 95.6038 13.3429C95.6038 18.2691 91.6021 22.283 86.6759 22.283ZM86.6759 8.78168C84.1581 8.78168 82.1147 10.8373 82.1147 13.3429C82.1147 15.8607 84.1581 17.9163 86.6759 17.9163C89.1938 17.9163 91.2372 15.8607 91.2372 13.3429C91.2372 10.8373 89.1938 8.78168 86.6759 8.78168Z" fill="#DB555B"/>
<path d="M84.6081 28.0001C83.4039 28.0001 82.4187 27.027 82.4187 25.8107C82.4187 24.6065 83.4039 23.6334 84.6081 23.6334C88.2693 23.6334 91.2371 20.6534 91.2371 16.9923V13.3432C91.2371 12.1391 92.2224 11.166 93.4265 11.166C94.6307 11.166 95.6038 12.1391 95.6038 13.3432V16.9923C95.6038 23.0618 90.6776 28.0001 84.6081 28.0001Z" fill="#DB555B"/>
<path d="M101.442 25.689H99.9097C98.7055 25.689 97.7324 24.7037 97.7324 23.4996C97.7324 22.2954 98.7055 21.3223 99.9097 21.3223H101.442C105.225 21.3223 108.29 18.245 108.29 14.4744V2.1894C108.29 0.973067 109.275 0 110.48 0C111.684 0 112.657 0.973067 112.657 2.1894V14.4744C112.657 20.6534 107.633 25.689 101.442 25.689Z" fill="#4598AC"/>
<path d="M102.5 17.576C101.296 17.576 100.323 16.603 100.323 15.3988V2.1894C100.323 0.973067 101.296 0 102.5 0C103.705 0 104.69 0.973067 104.69 2.1894V15.3988C104.69 16.603 103.705 17.576 102.5 17.576Z" fill="#4598AC"/>
<path d="M131.51 25.6888C128.007 25.6888 124.808 23.621 123.373 20.4342C122.874 19.3274 123.361 18.038 124.467 17.5394C125.562 17.0407 126.851 17.5272 127.35 18.6341C128.092 20.2639 129.722 21.3222 131.51 21.3222C134.028 21.3222 136.071 19.2787 136.071 16.7609C136.071 14.2431 134.028 12.1997 131.51 12.1997C130.877 12.1997 130.257 12.3213 129.685 12.5767C128.579 13.0632 127.289 12.5524 126.803 11.4577C126.328 10.3508 126.827 9.06151 127.934 8.57497C129.065 8.07628 130.269 7.83301 131.51 7.83301C136.436 7.83301 140.438 11.8348 140.438 16.7609C140.438 21.6749 136.436 25.6888 131.51 25.6888Z" fill="#4598AC"/>
<path fill-rule="evenodd" clip-rule="evenodd" d="M122.655 22.283C117.741 22.283 113.727 18.2691 113.727 13.3429C113.727 8.42894 117.741 4.41504 122.655 4.41504C127.581 4.41504 131.583 8.42894 131.583 13.3429C131.583 18.2691 127.581 22.283 122.655 22.283ZM122.655 8.78168C120.15 8.78168 118.094 10.8373 118.094 13.3429C118.094 15.8607 120.15 17.9163 122.655 17.9163C125.173 17.9163 127.216 15.8607 127.216 13.3429C127.216 10.8373 125.173 8.78168 122.655 8.78168Z" fill="#4598AC"/>
<path d="M124.2 25.6528H114.542C113.338 25.6528 112.353 24.6797 112.353 23.4634C112.353 22.2592 113.338 21.2861 114.542 21.2861H124.2C125.404 21.2861 126.377 22.2592 126.377 23.4634C126.377 24.6797 125.404 25.6528 124.2 25.6528Z" fill="#4598AC"/>
<path d="M3.70982 25.689H2.17724C0.973067 25.689 0 24.7037 0 23.4996C0 22.2954 0.973067 21.3223 2.17724 21.3223H3.70982C7.49262 21.3223 10.5699 18.245 10.5699 14.4744V2.1894C10.5699 0.973067 11.543 0 12.7472 0C13.9514 0 14.9366 0.973067 14.9366 2.1894V14.4744C14.9366 20.6534 9.90096 25.689 3.70982 25.689Z" fill="#4598AC"/>
<path d="M4.78022 17.576C3.56389 17.576 2.59082 16.603 2.59082 15.3988V2.1894C2.59082 0.973067 3.56389 0 4.78022 0C5.98439 0 6.95746 0.973067 6.95746 2.1894V15.3988C6.95746 16.603 5.98439 17.576 4.78022 17.576Z" fill="#4598AC"/>
<path d="M33.7776 25.6888C30.2746 25.6888 27.0878 23.621 25.6403 20.4342C25.1416 19.3274 25.6403 18.038 26.735 17.5394C27.8297 17.0407 29.1312 17.5272 29.6178 18.6341C30.3597 20.2639 31.9896 21.3222 33.7776 21.3222C36.2954 21.3222 38.351 19.2787 38.351 16.7609C38.351 14.2431 36.2954 12.1997 33.7776 12.1997C33.1451 12.1997 32.537 12.3213 31.9531 12.5767C30.8463 13.0632 29.5691 12.5524 29.0826 11.4577C28.596 10.3508 29.0947 9.06151 30.2016 8.57497C31.3328 8.07628 32.537 7.83301 33.7776 7.83301C38.7038 7.83301 42.7055 11.8348 42.7055 16.7609C42.7055 21.6749 38.7038 25.6888 33.7776 25.6888Z" fill="#4598AC"/>
<path fill-rule="evenodd" clip-rule="evenodd" d="M24.935 22.283C20.0088 22.283 16.0071 18.2691 16.0071 13.3429C16.0071 8.42894 20.0088 4.41504 24.935 4.41504C29.849 4.41504 33.8629 8.42894 33.8629 13.3429C33.8629 18.2691 29.849 22.283 24.935 22.283ZM24.935 8.78168C22.4172 8.78168 20.3737 10.8373 20.3737 13.3429C20.3737 15.8607 22.4172 17.9163 24.935 17.9163C27.4406 17.9163 29.4962 15.8607 29.4962 13.3429C29.4962 10.8373 27.4406 8.78168 24.935 8.78168Z" fill="#4598AC"/>
<path d="M26.4675 25.6528H16.8098C15.6056 25.6528 14.6326 24.6797 14.6326 23.4634C14.6326 22.2592 15.6056 21.2861 16.8098 21.2861H26.4675C27.6717 21.2861 28.6569 22.2592 28.6569 23.4634C28.6569 24.6797 27.6717 25.6528 26.4675 25.6528Z" fill="#4598AC"/>
</svg>
